<?xml version="1.0" standalone="no"?>
<svg
  width="600"
  height="600"
  viewBox="0 0 600 600"
  xmlns="http://www.w3.org/2000/svg"
>
  <g transform="translate(300,300)">
    <path d="M114.7,-170C158.1,-150.6,209.1,-134.7,211.2,-104.1C213.4,-73.5,166.6,-28.1,157.1,21C147.6,70.2,175.5,123.2,164.3,150.2C153.1,177.2,102.9,178.3,58,186.4C13.1,194.5,-26.4,209.5,-70.4,210.1C-114.5,210.8,-163,197.1,-185.7,164.5C-208.4,131.9,-205.2,80.5,-190.8,40.4C-176.5,0.2,-151,-28.5,-138.7,-66.6C-126.4,-104.7,-127.3,-152,-106.3,-181.6C-85.4,-211.3,-42.7,-223.1,-3.5,-217.7C35.7,-212.2,71.4,-189.4,114.7,-170Z" fill="#000000" />
  </g>
</svg>
  